<svg role="img" viewBox="0 0 24 24" xmlns="http://www.w3.org/2000/svg">
  <defs>
    <!-- Simple Icons: https://simpleicons.org/ -->
    <symbol id="apple-podcasts"><path d="M5.34 0A5.328 5.328 0 000 5.34v13.32A5.328 5.328 0 005.34 24h13.32A5.328 5.328 0 0024 18.66V5.34A5.328 5.328 0 0018.66 0zm6.525 2.568c2.336 0 4.448.902 6.056 2.587 1.224 1.272 1.912 2.619 2.264 4.392.12.59.12 2.2.007 2.864a8.506 8.506 0 01-3.24 5.296c-.608.46-2.096 1.261-2.336 1.261-.088 0-.096-.091-.056-.46.072-.592.144-.715.48-.856.536-.224 1.448-.874 2.008-1.435a7.644 7.644 0 002.008-3.536c.208-.824.184-2.656-.048-3.504-.728-2.696-2.928-4.792-5.624-5.352-.784-.16-2.208-.16-3 0-2.728.56-4.984 2.76-5.672 5.528-.184.752-.184 2.584 0 3.336.456 1.832 1.64 3.512 3.192 4.512.304.2.672.408.824.472.336.144.408.264.472.856.04.36.03.464-.056.464-.056 0-.464-.176-.896-.384l-.04-.03c-2.472-1.216-4.056-3.274-4.632-6.012-.144-.706-.168-2.392-.03-3.04.36-1.74 1.048-3.1 2.192-4.304 1.648-1.737 3.768-2.656 6.128-2.656zm.134 2.81c.409.004.803.04 1.106.106 2.784.62 4.76 3.408 4.376 6.174-.152 1.114-.536 2.03-1.216 2.88-.336.43-1.152 1.15-1.296 1.15-.023 0-.048-.272-.048-.603v-.605l.416-.496c1.568-1.878 1.456-4.502-.256-6.224-.664-.67-1.432-1.064-2.424-1.246-.64-.118-.776-.118-1.448-.008-1.02.167-1.81.562-2.512 1.256-1.72 1.704-1.832 4.342-.264 6.222l.413.496v.608c0 .336-.027.608-.06.608-.03 0-.264-.16-.512-.36l-.034-.011c-.832-.664-1.568-1.842-1.872-2.997-.184-.698-.184-2.024.008-2.72.504-1.878 1.888-3.335 3.808-4.019.41-.145 1.133-.22 1.814-.211zm-.13 2.99c.31 0 .62.06.844.178.488.253.888.745 1.04 1.259.464 1.578-1.208 2.96-2.72 2.254h-.015c-.712-.331-1.096-.956-1.104-1.77 0-.733.408-1.371 1.112-1.745.224-.117.534-.176.844-.176zm-.011 4.728c.988-.004 1.706.349 1.97.97.198.464.124 1.932-.218 4.302-.232 1.656-.36 2.074-.68 2.356-.44.39-1.064.498-1.656.288h-.003c-.716-.257-.87-.605-1.164-2.644-.341-2.37-.416-3.838-.218-4.302.262-.616.974-.966 1.97-.97z"/></symbol>
    <symbol id="deezer"><path d="M18.81 4.16v3.03H24V4.16h-5.19zM6.27 8.38v3.027h5.189V8.38h-5.19zm12.54 0v3.027H24V8.38h-5.19zM6.27 12.594v3.027h5.189v-3.027h-5.19zm6.271 0v3.027h5.19v-3.027h-5.19zm6.27 0v3.027H24v-3.027h-5.19zM0 16.81v3.029h5.19v-3.03H0zm6.27 0v3.029h5.189v-3.03h-5.19zm6.271 0v3.029h5.19v-3.03h-5.19zm6.27 0v3.029H24v-3.03h-5.19Z"/></symbol>
    <symbol id="google-podcasts"><path d="M1.503 9.678c-.83 0-1.5.67-1.5 1.5v1.63a1.5 1.5 0 103 0v-1.63c0-.83-.67-1.5-1.5-1.5zm20.994 0c-.83 0-1.5.67-1.5 1.5v1.63a1.5 1.5 0 103 0v-1.63c0-.83-.67-1.5-1.5-1.5zM6.68 14.587c-.83 0-1.5.67-1.5 1.5v1.63a1.5 1.5 0 103 0v-1.62c0-.83-.67-1.5-1.5-1.5zm0-9.817c-.83 0-1.5.67-1.5 1.5v5.357a1.5 1.5 0 003 0V6.258c0-.83-.67-1.5-1.5-1.5zm10.638 0c-.83 0-1.5.67-1.5 1.5v1.64a1.5 1.5 0 003 0V6.27c0-.83-.67-1.5-1.5-1.5zM12 0c-.83 0-1.5.67-1.5 1.5v1.63a1.5 1.5 0 103 0V1.5c0-.83-.67-1.499-1.5-1.499zm0 19.355c-.83 0-1.5.67-1.5 1.5v1.64a1.5 1.5 0 103 .01v-1.64c0-.82-.67-1.5-1.5-1.5zm5.319-8.457c-.83 0-1.5.68-1.5 1.5v5.328a1.5 1.5 0 003 0v-5.329c0-.83-.67-1.5-1.5-1.5zM12 6.128c-.83 0-1.5.68-1.5 1.5v8.728a1.5 1.5 0 003 0V7.638c0-.83-.67-1.5-1.5-1.5z"/></symbol>
    <symbol id="rss"><path d="M19.199 24C19.199 13.467 10.533 4.8 0 4.8V0c13.165 0 24 10.835 24 24h-4.801zM3.291 17.415c1.814 0 3.293 1.479 3.293 3.295 0 1.813-1.485 3.29-3.301 3.29C1.47 24 0 22.526 0 20.71s1.475-3.294 3.291-3.295zM15.909 24h-4.665c0-6.169-5.075-11.245-11.244-11.245V8.09c8.727 0 15.909 7.184 15.909 15.91z"/></symbol>
    <symbol id="twitter"><path d="M23.953 4.57a10 10 0 01-2.825.775 4.958 4.958 0 002.163-2.723c-.951.555-2.005.959-3.127 1.184a4.92 4.92 0 00-8.384 4.482C7.69 8.095 4.067 6.13 1.64 3.162a4.822 4.822 0 00-.666 2.475c0 1.71.87 3.213 2.188 4.096a4.904 4.904 0 01-2.228-.616v.06a4.923 4.923 0 003.946 4.827 4.996 4.996 0 01-2.212.085 4.936 4.936 0 004.604 3.417 9.867 9.867 0 01-6.102 2.105c-.39 0-.779-.023-1.17-.067a13.995 13.995 0 007.557 2.209c9.053 0 13.998-7.496 13.998-13.985 0-.21 0-.42-.015-.63A9.935 9.935 0 0024 4.59z"/></symbol>
  </defs>
</svg>